<svg width="50" height="50" viewBox="0 0 50 50" fill="none" xmlns="http://www.w3.org/2000/svg">
<path d="M22.9595 11.6735C23.2456 11.9595 23.7093 11.9594 23.9952 11.6735L27.0407 8.62798C27.3268 8.34185 27.3268 7.87817 27.0407 7.59214C26.7548 7.3062 26.291 7.3062 26.005 7.59214L22.9595 10.6376C22.6733 10.9237 22.6733 11.3874 22.9595 11.6735Z" fill="white"/>
<path d="M46.3045 9.08203C46.709 9.08203 47.0369 8.7542 47.0369 8.34961V4.39395C47.0369 1.97119 45.0657 0 42.6429 0H7.35693C4.93408 0 2.96289 1.97119 2.96289 4.39395V16.1083C2.96289 17.7813 4.27109 19.1539 5.91816 19.2586V42.4162C4.23662 42.743 2.96289 44.2261 2.96289 46.0017V48.0822C2.96289 49.1396 3.82324 50 4.88066 50H45.119C46.1766 50 47.0368 49.1396 47.0368 48.0822V46.0017C47.0368 44.226 45.7632 42.7429 44.0815 42.4162V19.2586C45.7286 19.1539 47.0368 17.7813 47.0368 16.1083V11.7884C47.0368 11.3838 46.7089 11.056 46.3044 11.056C45.8999 11.056 45.572 11.3838 45.572 11.7884V16.1083C45.572 17.0416 44.8127 17.8009 43.8794 17.8009H6.12031C5.18701 17.8009 4.42773 17.0416 4.42773 16.1083V4.39395C4.42773 2.77881 5.7418 1.46484 7.35693 1.46484H42.6429C44.258 1.46484 45.5721 2.77881 45.5721 4.39395V8.34961C45.5721 8.7542 45.9 9.08203 46.3045 9.08203ZM23.4141 24.0495H26.5857V25.4348C26.5857 25.4883 26.5422 25.5318 26.4886 25.5318H23.5111C23.4576 25.5318 23.4141 25.4883 23.4141 25.4348V24.0495ZM21.6852 22.5847C21.0706 22.5847 20.5705 22.0847 20.5705 21.4701V19.2658H29.4293V21.4701C29.4293 22.0847 28.9293 22.5847 28.3146 22.5847H21.6852ZM21.6852 24.0495H21.9493V25.4348C21.9493 26.296 22.65 26.9967 23.5112 26.9967H26.4887C27.3499 26.9967 28.0507 26.296 28.0507 25.4348V24.0495H28.3148C29.7371 24.0495 30.8943 22.8924 30.8943 21.4701V19.2658H42.617V42.3486H31.1447L31.3692 40.8704H33.1583C34.064 40.8704 34.8553 40.2581 35.0826 39.3813L35.8266 36.512C35.9821 35.912 35.8538 35.2867 35.4745 34.7966C35.0952 34.3064 34.5222 34.0253 33.9022 34.0253H32.4088L32.5711 32.9568C32.825 31.2852 31.5295 29.7808 29.8409 29.7808H20.1591C18.4683 29.7808 17.1754 31.2875 17.4289 32.9568L17.719 34.8677L18.8552 42.3486H7.38301V19.2657H19.1057V21.47C19.1057 22.8924 20.2628 24.0495 21.6852 24.0495ZM20.3367 42.3485L19.2951 35.49H20.4813C20.8858 35.49 21.2138 35.1622 21.2138 34.7576C21.2138 34.353 20.8858 34.0252 20.4813 34.0252H19.0727L18.8771 32.7368C18.7578 31.9518 19.3661 31.2455 20.159 31.2455H29.8408C30.6349 31.2455 31.2418 31.9529 31.1228 32.7368L30.9271 34.0252C28.3377 34.0252 25.3806 34.0252 23.9056 34.0252C23.5011 34.0252 23.1731 34.353 23.1731 34.7576C23.1731 35.1622 23.5011 35.49 23.9056 35.49H30.7047L29.6632 42.3485H20.3367ZM32.1862 35.49H33.9021C34.1255 35.49 34.2572 35.6172 34.3158 35.693C34.3744 35.7687 34.4645 35.9282 34.4085 36.1444L33.6646 39.0137C33.6047 39.2443 33.3965 39.4056 33.1582 39.4056H31.5916L32.1862 35.49ZM45.5721 46.0018V48.0823C45.5721 48.3321 45.3688 48.5353 45.1191 48.5353H4.88066C4.63086 48.5353 4.42773 48.3321 4.42773 48.0823V46.0018C4.42773 44.7952 5.40938 43.8135 6.61602 43.8135H43.3837C44.5903 43.8134 45.5721 44.7951 45.5721 46.0018Z" fill="white"/>
<path d="M19.1057 9.63286C19.1057 12.883 21.7499 15.5271 25 15.5271C28.25 15.5271 30.8942 12.883 30.8942 9.63286C30.8942 6.38276 28.25 3.73853 25 3.73853C21.7499 3.73853 19.1057 6.38267 19.1057 9.63286ZM29.4293 9.63286C29.4293 12.0752 27.4423 14.0623 25 14.0623C22.5576 14.0623 20.5706 12.0751 20.5706 9.63286C20.5706 7.19058 22.5576 5.20337 25 5.20337C27.4423 5.20337 29.4293 7.19048 29.4293 9.63286Z" fill="white"/>
<path d="M8.6189 6.74487C7.66636 6.74487 6.89136 7.51997 6.89136 8.47251V10.7931C6.89136 11.7458 7.66636 12.5207 8.6189 12.5207H14.8005C15.7532 12.5207 16.5282 11.7457 16.5282 10.7931V8.47261C16.5282 7.51997 15.7532 6.74497 14.8005 6.74497L8.6189 6.74487ZM15.0633 8.47261V10.7932C15.0633 10.938 14.9455 11.0559 14.8005 11.0559H8.6189C8.47407 11.0559 8.3562 10.938 8.3562 10.7932V8.47261C8.3562 8.32769 8.47407 8.20981 8.6189 8.20981H14.8005C14.9455 8.20972 15.0633 8.32759 15.0633 8.47261Z" fill="white"/>
<path d="M41.381 6.74487H35.1993C34.2467 6.74487 33.4717 7.51997 33.4717 8.47251V10.7931C33.4717 11.7458 34.2467 12.5207 35.1993 12.5207H41.381C42.3335 12.5207 43.1085 11.7457 43.1085 10.7931V8.47261C43.1086 7.51997 42.3336 6.74487 41.381 6.74487ZM41.6438 10.7931C41.6438 10.9379 41.5259 11.0558 41.3811 11.0558H35.1994C35.0545 11.0558 34.9366 10.9379 34.9366 10.7931V8.47261C34.9366 8.32769 35.0545 8.20981 35.1994 8.20981H41.3811C41.5259 8.20981 41.6438 8.32769 41.6438 8.47261V10.7931Z" fill="white"/>
</svg>
