<svg width="20" height="20" viewBox="0 0 20 20" fill="none" xmlns="http://www.w3.org/2000/svg">
<g clip-path="url(#clip0_2_1796)">
<path d="M18.5346 15.2458H18.0094V13.2723C18.0094 13.0031 17.7903 12.784 17.5211 12.784H15.8024C15.5332 12.784 15.3142 13.0031 15.3142 13.2723V15.2479C15.3031 15.2466 15.2918 15.2458 15.2803 15.2458H13.6231V13.2723C13.6231 13.0031 13.4041 12.784 13.1349 12.784H11.4162C11.147 12.784 10.9279 13.0031 10.9279 13.2723V15.2458H9.95658C9.75619 15.0222 9.50424 14.8459 9.21967 14.7351L9.1667 13.4269C9.5951 13.2901 9.90627 12.8883 9.90627 12.4151V10.2178C9.90627 9.68299 9.50885 9.23947 8.99385 9.16654L8.944 7.93846L10.7387 5.97373L12.2401 7.97592C12.429 8.22768 12.7004 8.38018 12.9886 8.42346C13.1024 9.13799 13.7228 9.68592 14.4689 9.68592C14.9031 9.68592 15.3149 9.49404 15.5967 9.17276L16.202 9.47104C16.1192 9.76674 16.1213 10.0894 16.2273 10.4015C16.3629 10.8007 16.6457 11.1232 17.0238 11.3096C17.2443 11.4183 17.4816 11.4731 17.7203 11.4731C17.8912 11.4731 18.0627 11.445 18.2292 11.3885C18.3824 11.3365 18.4644 11.1701 18.4124 11.0169C18.3604 10.8636 18.1939 10.7816 18.0408 10.8337C17.7898 10.9189 17.5207 10.9012 17.2829 10.784C17.0452 10.6669 16.8674 10.4641 16.7821 10.2131C16.6062 9.69502 16.8846 9.13037 17.4027 8.95444C17.6537 8.8692 17.9228 8.88686 18.1606 9.00404C18.3983 9.12123 18.5762 9.32401 18.6614 9.57498C18.7134 9.72818 18.8798 9.81018 19.0329 9.75819C19.1862 9.70619 19.2682 9.53979 19.2162 9.38658C19.0806 8.9874 18.7978 8.6649 18.4197 8.4785C18.0415 8.29209 17.6135 8.26408 17.2143 8.39963C16.9024 8.50553 16.6453 8.70006 16.4612 8.94557L15.8895 8.66377C15.9408 8.51084 15.9677 8.34983 15.9677 8.18678C15.9677 7.62584 15.6624 7.12662 15.1844 6.86889C15.2312 6.5985 15.1813 6.31072 15.023 6.06002L13.2068 3.17772C13.4747 2.61826 13.3641 1.93408 12.9133 1.48725L11.8463 0.430373C11.2803 -0.13076 10.3796 -0.14494 9.79603 0.398185L5.50412 4.39248H4.11631C2.73229 4.39248 1.60412 5.47572 1.54795 6.85858L1.45381 9.17717C0.969629 9.2758 0.60416 9.7049 0.60416 10.2178V12.4151C0.60416 12.8655 0.886035 13.2509 1.28248 13.4051L1.22846 14.7351C0.510762 15.0144 0.000488281 15.7123 0.000488281 16.5276V19.5117C0.000488281 19.7809 0.219512 19.9999 0.48873 19.9999H9.95936C10.2286 19.9999 10.4476 19.7809 10.4476 19.5117V19.2635H17.1855C17.3473 19.2635 17.4785 19.1324 17.4785 18.9706C17.4785 18.8088 17.3473 18.6776 17.1855 18.6776H10.4476V16.5275C10.4476 16.2821 10.4009 16.0476 10.3167 15.8317H18.5346C19.0192 15.8317 19.4135 16.2259 19.4135 16.7105V17.7988C19.4135 18.2834 19.0192 18.6776 18.5346 18.6776H18.3573C18.1955 18.6776 18.0643 18.8088 18.0643 18.9706C18.0643 19.1324 18.1954 19.2636 18.3573 19.2636H18.5346C19.3423 19.2636 19.9994 18.6065 19.9994 17.7988V16.7106C19.9994 15.9029 19.3423 15.2458 18.5346 15.2458ZM14.9387 7.4033C15.2101 7.56506 15.3817 7.85858 15.3817 8.18682C15.3817 8.35104 15.3377 8.5119 15.2543 8.65217C15.0879 8.9326 14.7943 9.10006 14.4688 9.10006C14.0243 9.10006 13.6531 8.78069 13.5722 8.35936C13.6546 8.3274 13.7347 8.28557 13.8107 8.23326L14.7029 7.61924C14.7935 7.55686 14.8721 7.48389 14.9387 7.4033ZM14.5273 6.37256C14.6341 6.54174 14.64 6.74506 14.5604 6.91338C14.5592 6.916 14.5578 6.91854 14.5567 6.92123C14.5155 7.00498 14.4532 7.07979 14.3708 7.13658L13.4786 7.75057C13.4008 7.80412 13.3144 7.83557 13.2267 7.84615C13.2262 7.84623 13.2256 7.84627 13.2251 7.84635C13.0321 7.86908 12.8337 7.79084 12.7088 7.6244L11.1408 5.53354L12.8321 3.68209L14.5273 6.37256ZM2.13334 6.88236C2.17674 5.81471 3.04775 4.97838 4.11631 4.97838H6.33182C6.65467 4.97838 6.96264 5.05346 7.24709 5.20158C7.3906 5.27627 7.56748 5.22053 7.64221 5.07705C7.71693 4.93354 7.66115 4.75662 7.51768 4.6819C7.16338 4.4974 6.76502 4.39795 6.36365 4.39295L10.1953 0.827053C10.5479 0.498967 11.0921 0.507443 11.434 0.846506L12.501 1.90342C12.8374 2.23694 12.8579 2.78404 12.532 3.14182L10.5426 5.31975C10.5421 5.32037 10.5415 5.32096 10.541 5.32154L8.91029 7.1067L8.90021 6.85854C8.88143 6.39561 8.73822 5.94658 8.48615 5.5601C8.39775 5.42455 8.21623 5.38639 8.08076 5.47479C7.94525 5.56319 7.90701 5.74467 7.99545 5.88018C8.18986 6.1783 8.30033 6.52483 8.31486 6.88233L8.40717 9.1558H2.04104L2.13334 6.88236ZM1.19002 12.4151V10.2178C1.19002 9.95529 1.40357 9.7417 1.66611 9.7417H8.84424C9.10674 9.7417 9.32033 9.95526 9.32033 10.2178V12.4151C9.32033 12.6776 9.10678 12.8912 8.84424 12.8912H1.66611C1.40361 12.8912 1.19002 12.6777 1.19002 12.4151ZM9.8617 19.4141H0.586387V16.5276C0.586387 15.7904 1.18619 15.1906 1.92342 15.1906H2.75518C2.91697 15.1906 3.04814 15.0594 3.04814 14.8976C3.04814 14.7358 2.91697 14.6046 2.75518 14.6046C1.84365 14.6046 1.89318 14.6036 1.81998 14.6075L1.86588 13.4771H8.58236L8.62811 14.6075C8.54924 14.6033 8.88229 14.6046 3.92697 14.6046C3.76518 14.6046 3.634 14.7358 3.634 14.8976C3.634 15.0594 3.76518 15.1906 3.92697 15.1906H8.52463C9.26186 15.1906 9.86166 15.7904 9.86166 16.5276C9.8617 16.8909 9.8617 19.0495 9.8617 19.4141ZM13.0372 15.2457H11.5138V13.3699H13.0372V15.2457ZM17.4235 15.2457H15.9001V13.3699H17.4235V15.2457Z" fill="#444444"/>
<path d="M12.0781 17.3068C12.0781 17.8223 12.4976 18.2417 13.0131 18.2417C13.5286 18.2417 13.948 17.8223 13.948 17.3068C13.948 16.7912 13.5286 16.3718 13.0131 16.3718C12.4976 16.3718 12.0781 16.7912 12.0781 17.3068ZM13.3621 17.3068C13.3621 17.4992 13.2055 17.6558 13.0131 17.6558C12.8206 17.6558 12.664 17.4992 12.664 17.3068C12.664 17.1143 12.8206 16.9577 13.0131 16.9577C13.2055 16.9577 13.3621 17.1143 13.3621 17.3068Z" fill="#444444"/>
<path d="M16.1833 17.3068C16.1833 17.8224 16.6028 18.2418 17.1183 18.2418C17.6339 18.2418 18.0533 17.8224 18.0533 17.3068C18.0533 16.0712 16.1833 16.0712 16.1833 17.3068ZM17.1183 17.6559C16.9259 17.6559 16.7692 17.4993 16.7692 17.3068C16.7692 17.1144 16.9259 16.9578 17.1183 16.9578C17.3108 16.9578 17.4674 17.1144 17.4674 17.3068C17.4674 17.4993 17.3108 17.6559 17.1183 17.6559Z" fill="#444444"/>
<path d="M5.22401 5.76892C4.57644 5.76892 4.04956 6.2958 4.04956 6.94337C4.04956 7.59099 4.57644 8.11783 5.22401 8.11783C5.87159 8.11783 6.39847 7.59095 6.39847 6.94337C6.39847 6.2958 5.87159 5.76892 5.22401 5.76892ZM5.22401 7.53193C4.89948 7.53193 4.63546 7.2679 4.63546 6.94337C4.63546 6.61884 4.89948 6.35482 5.22401 6.35482C5.54855 6.35482 5.81257 6.61884 5.81257 6.94337C5.81257 7.2679 5.54855 7.53193 5.22401 7.53193Z" fill="#444444"/>
<path d="M11.104 3.40307C11.8204 3.0649 11.7656 2.02701 11.0247 1.76123C10.2761 1.49272 9.58451 2.26803 9.91979 2.9783C10.1287 3.421 10.6573 3.61389 11.104 3.40307ZM10.4384 2.49604C10.5301 2.24061 10.8841 2.22569 10.9989 2.46897C11.0704 2.62041 11.0053 2.80178 10.8539 2.87326C10.6117 2.98752 10.3467 2.75182 10.4384 2.49604Z" fill="#444444"/>
<path d="M2.10596 12.4235H4.3426C4.50439 12.4235 4.63557 12.2924 4.63557 12.1306V10.5862C4.63557 10.4244 4.50439 10.2932 4.3426 10.2932H2.10596C1.94416 10.2932 1.81299 10.4244 1.81299 10.5862V12.1306C1.81299 12.2924 1.94416 12.4235 2.10596 12.4235ZM2.39889 10.8792H4.04963V11.8376H2.39889V10.8792Z" fill="#444444"/>
<path d="M5.71936 11.0435H5.83893C6.00073 11.0435 6.1319 10.9123 6.1319 10.7505C6.1319 10.5887 6.00073 10.4575 5.83893 10.4575H5.71936C5.55756 10.4575 5.42639 10.5887 5.42639 10.7505C5.42639 10.9123 5.55756 11.0435 5.71936 11.0435Z" fill="#444444"/>
<path d="M6.92358 11.0435H7.04315C7.20495 11.0435 7.33612 10.9123 7.33612 10.7505C7.33612 10.5887 7.20495 10.4575 7.04315 10.4575H6.92358C6.76179 10.4575 6.63062 10.5887 6.63062 10.7505C6.63062 10.9123 6.76179 11.0435 6.92358 11.0435Z" fill="#444444"/>
<path d="M8.12793 11.0435H8.2475C8.4093 11.0435 8.54047 10.9123 8.54047 10.7505C8.54047 10.5887 8.4093 10.4575 8.2475 10.4575H8.12793C7.96613 10.4575 7.83496 10.5887 7.83496 10.7505C7.83496 10.9123 7.96613 11.0435 8.12793 11.0435Z" fill="#444444"/>
<path d="M5.71936 12.1754H5.83893C6.00073 12.1754 6.1319 12.0442 6.1319 11.8824C6.1319 11.7206 6.00073 11.5895 5.83893 11.5895H5.71936C5.55756 11.5895 5.42639 11.7206 5.42639 11.8824C5.42639 12.0442 5.55756 12.1754 5.71936 12.1754Z" fill="#444444"/>
<path d="M6.92358 12.1754H7.04315C7.20495 12.1754 7.33612 12.0442 7.33612 11.8824C7.33612 11.7206 7.20495 11.5895 7.04315 11.5895H6.92358C6.76179 11.5895 6.63062 11.7206 6.63062 11.8824C6.63062 12.0442 6.76179 12.1754 6.92358 12.1754Z" fill="#444444"/>
<path d="M8.12793 12.1754H8.2475C8.4093 12.1754 8.54047 12.0442 8.54047 11.8824C8.54047 11.7206 8.4093 11.5895 8.2475 11.5895H8.12793C7.96613 11.5895 7.83496 11.7206 7.83496 11.8824C7.83496 12.0442 7.96613 12.1754 8.12793 12.1754Z" fill="#444444"/>
<path d="M2.40753 16.6963C1.89199 16.6963 1.47253 17.1157 1.47253 17.6312C1.47253 18.1468 1.89199 18.5663 2.40753 18.5663C2.92308 18.5663 3.3425 18.1468 3.3425 17.6312C3.3425 17.1157 2.92308 16.6963 2.40753 16.6963ZM2.40753 17.9804C2.21507 17.9804 2.05843 17.8237 2.05843 17.6312C2.05843 17.4388 2.21503 17.2822 2.40753 17.2822C2.60003 17.2822 2.7566 17.4388 2.7566 17.6312C2.7566 17.8237 2.6 17.9804 2.40753 17.9804Z" fill="#444444"/>
<path d="M8.33098 16.3728H8.26028V16.2753C8.26028 16.1135 8.12911 15.9823 7.96731 15.9823C7.80551 15.9823 7.67434 16.1135 7.67434 16.2753V16.3728H7.60364C7.44184 16.3728 7.31067 16.504 7.31067 16.6658C7.31067 16.8276 7.44184 16.9587 7.60364 16.9587H7.67434V18.3294C7.67434 18.4912 7.80551 18.6224 7.96731 18.6224C8.12911 18.6224 8.26028 18.4912 8.26028 18.3294V16.9587H8.33098C8.49278 16.9587 8.62395 16.8276 8.62395 16.6658C8.62395 16.5039 8.49278 16.3728 8.33098 16.3728Z" fill="#444444"/>
<path d="M6.75115 17.4328H6.68044V16.2753C6.68044 16.1135 6.54927 15.9823 6.38748 15.9823C6.22568 15.9823 6.09451 16.1135 6.09451 16.2753V17.4328H6.0238C5.86201 17.4328 5.73083 17.564 5.73083 17.7258C5.73083 17.8876 5.86201 18.0187 6.0238 18.0187H6.09451V18.3294C6.09451 18.4912 6.22568 18.6224 6.38748 18.6224C6.54927 18.6224 6.68044 18.4912 6.68044 18.3294V18.0187H6.75115C6.91294 18.0187 7.04412 17.8876 7.04412 17.7258C7.04408 17.564 6.91294 17.4328 6.75115 17.4328Z" fill="#444444"/>
<path d="M5.17131 16.6964H5.10061V16.2753C5.10061 16.1135 4.96944 15.9823 4.80764 15.9823C4.64584 15.9823 4.51467 16.1135 4.51467 16.2753V16.6964H4.44397C4.28217 16.6964 4.151 16.8276 4.151 16.9894C4.151 17.1512 4.28217 17.2823 4.44397 17.2823H4.51467V18.3294C4.51467 18.4912 4.64584 18.6224 4.80764 18.6224C4.96944 18.6224 5.10061 18.4912 5.10061 18.3294V17.2823H5.17131C5.33311 17.2823 5.46428 17.1512 5.46428 16.9894C5.46428 16.8276 5.33311 16.6964 5.17131 16.6964Z" fill="#444444"/>
</g>
<defs>
<clipPath id="clip0_2_1796">
<rect width="20" height="20" fill="white"/>
</clipPath>
</defs>
</svg>
