<svg width="50" height="50" viewBox="0 0 50 50" fill="none" xmlns="http://www.w3.org/2000/svg">
<path d="M47.1946 5.78066C47.5991 5.78066 47.927 5.45273 47.927 5.04824V3.22393C47.927 1.44629 46.4808 0 44.7031 0H5.29668C3.51904 0 2.07275 1.44629 2.07275 3.22393V37.5382C2.07275 37.9427 2.40068 38.2706 2.80518 38.2706C3.20967 38.2706 3.5376 37.9427 3.5376 37.5382V11.8795H46.4622V43.3377C46.4622 44.3077 45.673 45.0968 44.7031 45.0968C42.8542 45.0968 7.1748 45.0968 5.29678 45.0968C4.32676 45.0968 3.5377 44.3076 3.5377 43.3377V40.9562C3.5377 40.5517 3.20977 40.2237 2.80527 40.2237C2.40078 40.2237 2.07285 40.5517 2.07285 40.9562V43.3377C2.07285 44.9803 3.30791 46.3389 4.89795 46.536V48.6695C4.89795 49.4031 5.49473 49.9999 6.22832 49.9999H10.5836C11.3172 49.9999 11.9141 49.4031 11.9141 48.6695V46.5616H38.0858V48.6695C38.0858 49.4031 38.6826 49.9999 39.4163 49.9999H43.7716C44.5052 49.9999 45.102 49.4031 45.102 48.6695V46.5361C46.692 46.339 47.927 44.9803 47.927 43.3378C47.927 43.0034 47.927 8.76152 47.927 8.46631C47.927 8.06182 47.5991 7.73389 47.1946 7.73389C46.7901 7.73389 46.4622 8.06182 46.4622 8.46631V10.4147H3.5376V3.22393C3.5376 2.254 4.32676 1.46484 5.29668 1.46484H44.703C45.673 1.46484 46.4621 2.254 46.4621 3.22393V5.04824C46.4622 5.45273 46.7901 5.78066 47.1946 5.78066ZM10.4491 48.5352H6.3627V46.5617H10.4491V48.5352ZM43.6371 48.5352H39.5507V46.5617H43.6371V48.5352Z" fill="white"/>
<path d="M40.2149 2.64099C38.396 2.64099 36.9163 4.12078 36.9163 5.93972C36.9163 7.75867 38.396 9.23845 40.2149 9.23845C41.978 9.23845 43.4223 7.84812 43.5094 6.10623C43.5124 6.09285 43.514 6.01628 43.514 5.93972C43.514 5.86316 43.5124 5.7866 43.5094 5.77322C43.4224 4.03132 41.978 2.64099 40.2149 2.64099ZM40.2149 7.77361C39.2038 7.77361 38.3811 6.95095 38.3811 5.93972C38.3811 4.92849 39.2038 4.10583 40.2149 4.10583C40.9597 4.10583 41.601 4.55291 41.8878 5.19226H40.2149C39.8021 5.19226 39.4674 5.52683 39.4674 5.93972C39.4674 6.35261 39.8021 6.68718 40.2149 6.68718H41.8878C41.601 7.32644 40.9597 7.77361 40.2149 7.77361Z" fill="white"/>
<path d="M22.791 5.93972C22.791 7.75857 24.2708 9.23845 26.0896 9.23845C27.9085 9.23845 29.3884 7.75867 29.3884 5.93972C29.3884 4.12078 27.9086 2.64099 26.0896 2.64099C24.2707 2.64099 22.791 4.12078 22.791 5.93972ZM27.9236 5.93972C27.9236 6.95085 27.101 7.77361 26.0897 7.77361C25.0785 7.77361 24.256 6.95095 24.256 5.93972C24.256 5.18894 24.7099 4.54285 25.3573 4.25955V5.93972C25.3573 6.34421 25.6853 6.67214 26.0897 6.67214C26.4942 6.67214 26.8222 6.34421 26.8222 5.93972V4.25945C27.4696 4.54285 27.9236 5.18894 27.9236 5.93972Z" fill="white"/>
<path d="M14.3159 5.93972C14.3159 7.75857 15.7957 9.23845 17.6146 9.23845C19.4336 9.23845 20.9133 7.75867 20.9133 5.93972C20.9133 4.12078 19.4335 2.64099 17.6146 2.64099C15.7958 2.64099 14.3159 4.12078 14.3159 5.93972ZM19.4484 5.93972C19.4484 6.95085 18.6258 7.77361 17.6146 7.77361C16.6035 7.77361 15.7808 6.95095 15.7808 5.93972C15.7808 5.18894 16.2348 4.54285 16.8822 4.25955V5.93972C16.8822 6.34421 17.2102 6.67214 17.6146 6.67214C18.0191 6.67214 18.3471 6.34421 18.3471 5.93972V4.25945C18.9944 4.54285 19.4484 5.18894 19.4484 5.93972Z" fill="white"/>
<path d="M5.84058 5.93972C5.84058 7.75857 7.32036 9.23845 9.13931 9.23845C10.9583 9.23845 12.438 7.75867 12.438 5.93972C12.438 4.12078 10.9583 2.64099 9.13931 2.64099C7.32036 2.64099 5.84058 4.12078 5.84058 5.93972ZM10.9732 5.93972C10.9732 6.95085 10.1505 7.77361 9.13931 7.77361C8.12808 7.77361 7.30542 6.95095 7.30542 5.93972C7.30542 5.18894 7.75942 4.54285 8.40688 4.25955V5.93972C8.40688 6.34421 8.73481 6.67214 9.13931 6.67214C9.5438 6.67214 9.87173 6.34421 9.87173 5.93972V4.25945C10.5192 4.54285 10.9732 5.18894 10.9732 5.93972Z" fill="white"/>
<path d="M7.78818 42.5752H42.2115C43.1649 42.5752 43.9405 41.7996 43.9405 40.8461V19.4233C44.6389 19.2819 45.1662 18.6635 45.1662 17.9241V15.9308C45.1662 15.0874 44.48 14.4011 43.6365 14.4011H6.36318C5.51973 14.4011 4.8335 15.0874 4.8335 15.9308V17.9241C4.8335 18.6635 5.36084 19.2819 6.05918 19.4233V40.8462C6.05918 41.7996 6.83486 42.5752 7.78818 42.5752ZM42.4758 40.8462C42.4758 40.9919 42.3573 41.1105 42.2116 41.1105H7.78818C7.64248 41.1105 7.52402 40.9919 7.52402 40.8462V19.4539H42.4757V40.8462H42.4758ZM6.29834 15.9308C6.29834 15.8951 6.32744 15.866 6.36318 15.866H43.6366C43.6724 15.866 43.7015 15.8951 43.7015 15.9308C43.7015 18.0001 43.7343 17.9889 43.6366 17.9889C41.8801 17.9889 8.14023 17.9889 6.36318 17.9889C6.32744 17.9889 6.29834 17.9598 6.29834 17.924V15.9308Z" fill="white"/>
</svg>
