<svg width="50" height="50" viewBox="0 0 50 50" fill="none" xmlns="http://www.w3.org/2000/svg">
<g clip-path="url(#clip0_2_1647)">
<path d="M41.6539 8.16133C42.0584 8.16133 42.3863 7.8334 42.3863 7.42891V2.73945C42.3862 1.22891 41.1573 0 39.6468 0H10.3532C8.84268 0 7.61377 1.22891 7.61377 2.73955V44.2062C7.61377 45.7168 8.84268 46.9458 10.3533 46.9458H10.8649V48.2801C10.8649 49.2285 11.6365 50.0001 12.585 50.0001H14.6624C15.6108 50.0001 16.3824 49.2285 16.3824 48.2801V46.9458H33.6181V48.2801C33.6181 49.2285 34.3896 50.0001 35.3381 50.0001H37.4155C38.364 50.0001 39.1355 49.2285 39.1355 48.2801V46.9458H39.6472C41.1577 46.9458 42.3867 45.7169 42.3867 44.2062V10.8529C42.3867 10.4484 42.0589 10.1205 41.6543 10.1205C41.2498 10.1205 40.9219 10.4484 40.9219 10.8529V16.8171H20.0731C19.6687 16.8171 19.3407 17.145 19.3407 17.5495C19.3407 17.954 19.6687 18.2819 20.0731 18.2819H40.9215V44.2063C40.9215 44.9092 40.3497 45.4811 39.6468 45.4811H10.3532C9.65039 45.4811 9.07852 44.9092 9.07852 44.2063V18.2818H16.6492C17.0537 18.2818 17.3816 17.9539 17.3816 17.5494C17.3816 17.1449 17.0537 16.817 16.6492 16.817H9.07852V2.73955C9.07852 2.03672 9.65039 1.46484 10.3532 1.46484H39.6468C40.3497 1.46484 40.9215 2.03672 40.9215 2.73955V7.429C40.9215 7.8334 41.2493 8.16133 41.6539 8.16133ZM14.9174 48.28C14.9174 48.4207 14.8029 48.5352 14.6622 48.5352H12.5848C12.444 48.5352 12.3296 48.4207 12.3296 48.28V46.9457H14.9174V48.28ZM37.6703 48.28C37.6703 48.4207 37.5559 48.5352 37.4151 48.5352H35.3377C35.197 48.5352 35.0825 48.4207 35.0825 48.28V46.9457H37.6703V48.28Z" fill="white"/>
<path d="M10.9386 5.7248V12.557C10.9386 13.7009 11.8692 14.6314 13.013 14.6314C14.1569 14.6314 15.0874 13.7009 15.0874 12.557V5.7248C15.0874 4.58096 14.1569 3.65039 13.013 3.65039C11.8692 3.65039 10.9386 4.58096 10.9386 5.7248ZM13.6227 5.7248V12.557C13.6227 12.8932 13.3491 13.1666 13.013 13.1666C12.6769 13.1666 12.4033 12.8932 12.4033 12.557V5.7248C12.4033 5.38867 12.6769 5.11514 13.013 5.11514C13.3491 5.11514 13.6227 5.38867 13.6227 5.7248Z" fill="white"/>
<path d="M10.9386 22.0766V28.9088C10.9386 30.0527 11.8692 30.9833 13.013 30.9833C14.1569 30.9833 15.0874 30.0527 15.0874 28.9088V22.0766C15.0874 20.9328 14.1569 20.0022 13.013 20.0022C11.8692 20.0022 10.9386 20.9328 10.9386 22.0766ZM13.6227 22.0766V28.9088C13.6227 29.245 13.3491 29.5185 13.013 29.5185C12.6769 29.5185 12.4033 29.245 12.4033 28.9088V22.0766C12.4033 21.7405 12.6769 21.4669 13.013 21.4669C13.3491 21.4669 13.6227 21.7405 13.6227 22.0766Z" fill="white"/>
</g>
<defs>
<clipPath id="clip0_2_1647">
<rect width="50" height="50" fill="white"/>
</clipPath>
</defs>
</svg>
