<svg width="148" height="25" viewBox="0 0 148 25" fill="none" xmlns="http://www.w3.org/2000/svg">
<path d="M11.857 0.858057L8.61472 7.23591L1.3605 8.26196C0.0596065 8.44501 -0.461744 10.0009 0.481652 10.8921L5.72991 15.8537L4.4886 22.8626C4.26517 24.1295 5.64054 25.0785 6.79248 24.486L13.282 21.1766L19.7716 24.486C20.9236 25.0737 22.2989 24.1295 22.0755 22.8626L20.8342 15.8537L26.0824 10.8921C27.0258 10.0009 26.5045 8.44501 25.2036 8.26196L17.9494 7.23591L14.7071 0.858057C14.1261 -0.278782 12.4429 -0.293233 11.857 0.858057Z" fill="#FFBE04"/>
<path d="M42.2154 0.858057L38.9731 7.23591L31.7189 8.26196C30.418 8.44501 29.8967 10.0009 30.8401 10.8921L36.0883 15.8537L34.847 22.8626C34.6236 24.1295 35.9989 25.0785 37.1509 24.486L43.6404 21.1766L50.13 24.486C51.282 25.0737 52.6573 24.1295 52.4339 22.8626L51.1926 15.8537L56.4408 10.8921C57.3842 10.0009 56.8629 8.44501 55.562 8.26196L48.3078 7.23591L45.0655 0.858057C44.4845 -0.278782 42.8013 -0.293233 42.2154 0.858057Z" fill="#FFBE04"/>
<path d="M102.934 0.858057L99.6918 7.23591L92.4376 8.26196C91.1367 8.44501 90.6153 10.0009 91.5587 10.8921L96.807 15.8537L95.5657 22.8626C95.3423 24.1295 96.7176 25.0785 97.8696 24.486L104.359 21.1766L110.849 24.486C112.001 25.0737 113.376 24.1295 113.153 22.8626L111.911 15.8537L117.16 10.8921C118.103 10.0009 117.582 8.44501 116.281 8.26196L109.026 7.23591L105.784 0.858057C105.203 -0.278782 103.52 -0.293233 102.934 0.858057Z" fill="#FFBE04"/>
<path d="M72.5758 0.858057L69.3335 7.23591L62.0793 8.26196C60.7784 8.44501 60.257 10.0009 61.2004 10.8921L66.4487 15.8537L65.2074 22.8626C64.9839 24.1295 66.3593 25.0785 67.5112 24.486L74.0008 21.1766L80.4904 24.486C81.6423 25.0737 83.0177 24.1295 82.7942 22.8626L81.5529 15.8537L86.8012 10.8921C87.7446 10.0009 87.2232 8.44501 85.9223 8.26196L78.6681 7.23591L75.4258 0.858057C74.8449 -0.278782 73.1617 -0.293233 72.5758 0.858057Z" fill="#FFBE04"/>
<path d="M133.293 0.858057L130.05 7.23591L122.796 8.26196C121.495 8.44501 120.974 10.0009 121.917 10.8921L127.165 15.8537L125.924 22.8626C125.701 24.1295 127.076 25.0785 128.228 24.486L134.718 21.1766L141.207 24.486C142.359 25.0737 143.734 24.1295 143.511 22.8626L142.27 15.8537L147.518 10.8921C148.461 10.0009 147.94 8.44501 146.639 8.26196L139.385 7.23591L136.143 0.858057C135.562 -0.278782 133.878 -0.293233 133.293 0.858057Z" fill="#ECECEC"/>
</svg>
