<svg width="50" height="50" viewBox="0 0 50 50" fill="none" xmlns="http://www.w3.org/2000/svg">
<g clip-path="url(#clip0_2_1635)">
<path d="M5.58633 33.2993H5.13136C4.72713 33.2993 4.39941 33.627 4.39941 34.0313C4.39941 34.4355 4.72713 34.7632 5.13136 34.7632H5.58643C5.99066 34.7632 6.31837 34.4355 6.31837 34.0313C6.31837 33.627 5.99056 33.2993 5.58633 33.2993Z" fill="white"/>
<path d="M9.44336 33.2993H8.98829C8.58406 33.2993 8.25635 33.627 8.25635 34.0313C8.25635 34.4355 8.58406 34.7632 8.98829 34.7632H9.44336C9.84759 34.7632 10.1753 34.4355 10.1753 34.0313C10.1753 33.627 9.84759 33.2993 9.44336 33.2993Z" fill="white"/>
<path d="M13.3005 33.2993H12.8455C12.4412 33.2993 12.1135 33.627 12.1135 34.0313C12.1135 34.4355 12.4412 34.7632 12.8455 34.7632H13.3005C13.7048 34.7632 14.0325 34.4355 14.0325 34.0313C14.0325 33.627 13.7048 33.2993 13.3005 33.2993Z" fill="white"/>
<path d="M25.5057 39.0929C25.2228 38.8226 24.7774 38.8226 24.4944 39.0929L23.0432 40.4793C22.751 40.7585 22.7403 41.2218 23.0196 41.5142C23.1635 41.6646 23.356 41.7405 23.549 41.7405C23.7307 41.7405 23.9128 41.6732 24.0545 41.5378L24.2681 41.3336V45.6434C24.2681 46.0476 24.5958 46.3753 25.0001 46.3753C25.4043 46.3753 25.732 46.0476 25.732 45.6434V41.3337L25.9455 41.5378C26.2379 41.8171 26.7012 41.8064 26.9804 41.5142C27.2596 41.2219 27.2491 40.7586 26.9568 40.4793L25.5057 39.0929Z" fill="white"/>
<path d="M15.9321 40.6273C15.6492 40.357 15.2038 40.3569 14.9208 40.6273L13.4696 42.0137C13.1774 42.293 13.1667 42.7562 13.446 43.0486C13.5899 43.1991 13.7824 43.2749 13.9754 43.2749C14.1571 43.2749 14.3392 43.2077 14.4809 43.0722L14.6945 42.8681V45.1338C14.6945 46.2788 14.2869 47.3906 13.5466 48.2642L13.176 48.7017C12.9146 49.01 12.9528 49.472 13.2613 49.7332C13.3988 49.8497 13.5668 49.9067 13.734 49.9067C13.9417 49.9067 14.1481 49.8188 14.2928 49.6479L14.6635 49.2105C15.6275 48.0728 16.1584 46.6249 16.1584 45.1338V42.8682L16.3719 43.0722C16.6643 43.3515 17.1277 43.3409 17.4068 43.0486C17.686 42.7563 17.6755 42.2931 17.3832 42.0137L15.9321 40.6273Z" fill="white"/>
<path d="M7.55646 40.6273C7.27364 40.357 6.82822 40.357 6.54521 40.6273L5.09401 42.0137C4.80172 42.2929 4.79118 42.7563 5.07039 43.0486C5.3496 43.3409 5.81287 43.3514 6.10526 43.0722L6.31879 42.8681V45.1337C6.31879 46.2788 5.91115 47.3906 5.17091 48.2642L4.80025 48.7016C4.5389 49.01 4.57706 49.4719 4.88555 49.7332C5.02306 49.8497 5.19111 49.9067 5.35829 49.9067C5.56596 49.9067 5.77237 49.8188 5.9171 49.6479L6.28776 49.2105C7.25178 48.0727 7.78268 46.6249 7.78268 45.1336V42.8679L7.99631 43.0721C8.13811 43.2076 8.32002 43.2748 8.50184 43.2748C8.69478 43.2748 8.88742 43.199 9.03118 43.0485C9.31039 42.7562 9.29985 42.2929 9.00756 42.0136L7.55646 40.6273Z" fill="white"/>
<path d="M36.4533 48.2641C35.713 47.3904 35.3054 46.2788 35.3054 45.1336V42.8679L35.519 43.0721C35.6608 43.2075 35.8427 43.2748 36.0246 43.2748C36.2175 43.2748 36.4101 43.1989 36.5539 43.0485C36.8331 42.7562 36.8226 42.2929 36.5303 42.0136L35.0791 40.6272C34.7963 40.3569 34.3508 40.3569 34.0679 40.6272L32.6167 42.0136C32.3244 42.2928 32.3138 42.7561 32.5931 43.0485C32.8723 43.3407 33.3357 43.3513 33.628 43.0721L33.8416 42.8679V45.1336C33.8416 46.6248 34.3725 48.0727 35.3365 49.2103L35.7072 49.6477C35.8519 49.8186 36.0583 49.9066 36.266 49.9066C36.4332 49.9066 36.6012 49.8496 36.7387 49.733C37.0472 49.4717 37.0854 49.0099 36.824 48.7015L36.4533 48.2641Z" fill="white"/>
<path d="M44.8288 48.2641C44.0886 47.3904 43.6809 46.2788 43.6809 45.1336V42.8679L43.8946 43.0721C44.0364 43.2075 44.2183 43.2748 44.4001 43.2748C44.593 43.2748 44.7857 43.1989 44.9294 43.0485C45.2087 42.7562 45.1981 42.2929 44.9058 42.0136L43.4546 40.6272C43.1718 40.3569 42.7264 40.3569 42.4434 40.6272L40.9922 42.0136C40.6999 42.2928 40.6894 42.7562 40.9686 43.0485C41.2478 43.3407 41.711 43.3513 42.0034 43.0721L42.217 42.868V45.1336C42.217 46.6248 42.7479 48.0727 43.7119 49.2103L44.0825 49.6477C44.2273 49.8186 44.4337 49.9066 44.6414 49.9066C44.8085 49.9066 44.9766 49.8496 45.1141 49.733C45.4226 49.4717 45.4607 49.0099 45.1994 48.7015L44.8288 48.2641Z" fill="white"/>
<path d="M16.6909 6.96025C17.0952 6.96025 17.4229 6.63254 17.4229 6.22831V0.825205C17.4229 0.420977 17.0952 0.0932617 16.6909 0.0932617C16.2867 0.0932617 15.959 0.420977 15.959 0.825205V6.22831C15.959 6.63254 16.2867 6.96025 16.6909 6.96025Z" fill="white"/>
<path d="M48.1772 30.6422L34.0474 13.9366V0.825205C34.0474 0.420977 33.7197 0.0932617 33.3155 0.0932617C32.9113 0.0932617 32.5836 0.420977 32.5836 0.825205V13.4728H17.4228V9.34766C17.4228 8.94343 17.0951 8.61571 16.6908 8.61571C16.2866 8.61571 15.9589 8.94343 15.9589 9.34766V13.9366L1.83025 30.6409C0.792938 30.8156 0 31.7196 0 32.8059V35.2566C0 36.4675 0.985195 37.4527 2.19612 37.4527H47.8039C49.0148 37.4527 50 36.4675 50 35.2566V32.8059C50 31.7223 49.2108 30.82 48.1772 30.6422ZM48.5361 35.2566C48.5361 35.6603 48.2076 35.9888 47.8039 35.9888H2.19612C1.79238 35.9888 1.46389 35.6603 1.46389 35.2566V32.8059C1.46389 32.4022 1.79238 32.0737 2.19612 32.0737H10.0245C10.4287 32.0737 10.7564 31.746 10.7564 31.3418C10.7564 30.9375 10.4287 30.6098 10.0245 30.6098H3.7738L5.73072 28.2961H35.4195C35.8237 28.2961 36.1514 27.9684 36.1514 27.5642C36.1514 27.1599 35.8237 26.8322 35.4195 26.8322H6.96897L17.0305 14.9366H32.976L43.0375 26.8322H38.5389C38.1347 26.8322 37.807 27.1599 37.807 27.5642C37.807 27.9684 38.1347 28.2961 38.5389 28.2961H44.2756L46.2325 30.6098H13.1437C12.7395 30.6098 12.4118 30.9375 12.4118 31.3418C12.4118 31.746 12.7395 32.0737 13.1437 32.0737H47.8038C48.2075 32.0737 48.536 32.4022 48.536 32.8059L48.5361 35.2566Z" fill="white"/>
</g>
<defs>
<clipPath id="clip0_2_1635">
<rect width="50" height="50" fill="white"/>
</clipPath>
</defs>
</svg>
