<svg width="50" height="50" viewBox="0 0 50 50" fill="none" xmlns="http://www.w3.org/2000/svg">
<path d="M42.5647 0.78125H7.43525C4.63106 0.78125 2.34961 3.0626 2.34961 5.86689V44.133C2.34961 46.9373 4.63106 49.2188 7.43525 49.2188H42.5647C45.3689 49.2188 47.6504 46.9373 47.6504 44.133V5.86689C47.6504 3.0626 45.3689 0.78125 42.5647 0.78125ZM7.43525 2.34375H42.5647C44.5074 2.34375 46.0879 3.92432 46.0879 5.86689V37.9592H3.91211V5.86689C3.91211 3.92432 5.49258 2.34375 7.43525 2.34375ZM42.5647 47.6562H7.43525C5.49248 47.6562 3.91201 46.0757 3.91201 44.133V39.5217H46.0878V44.133C46.0879 46.0757 44.5074 47.6562 42.5647 47.6562ZM25 34.4046C32.6528 34.4046 38.8789 28.1785 38.8789 20.5258C38.8789 12.8729 32.6529 6.64688 25 6.64688C17.3471 6.64688 11.1211 12.8729 11.1211 20.5258C11.1211 28.1785 17.3472 34.4046 25 34.4046ZM25 8.20928C31.7912 8.20928 37.3164 13.7344 37.3164 20.5257C37.3164 27.3169 31.7913 32.842 25 32.842C18.2087 32.842 12.6836 27.3169 12.6836 20.5257C12.6836 13.7345 18.2087 8.20928 25 8.20928ZM24.2195 11.3897C24.2195 10.9583 24.5693 10.6085 25.0008 10.6085C30.4688 10.6085 34.9172 15.057 34.9172 20.5249C34.9172 20.9563 34.5674 21.3062 34.1359 21.3062C33.7045 21.3062 33.3547 20.9563 33.3547 20.5249C33.3547 15.9186 29.6071 12.171 25.0008 12.171C24.5692 12.171 24.2195 11.8212 24.2195 11.3897ZM33.7072 25.2715C32.4394 27.5971 30.3418 29.2897 27.8008 30.0377C26.8734 30.3106 25.9273 30.4459 24.9871 30.4459C23.3507 30.4459 21.7311 30.0367 20.2541 29.2314C19.8753 29.0249 19.7355 28.5503 19.9421 28.1715C20.1486 27.7927 20.6229 27.6529 21.002 27.8595C22.9611 28.9276 25.2189 29.1687 27.3596 28.5388C29.5002 27.9087 31.2673 26.4827 32.3354 24.5236C32.5419 24.1448 33.0164 24.0054 33.3952 24.2116C33.7741 24.4182 33.9138 24.8927 33.7072 25.2715ZM16.4255 25.5048C15.0953 23.2143 14.7367 20.5428 15.4158 17.9826C16.0949 15.4224 17.7304 13.2799 20.0209 11.9497C20.3938 11.7329 20.8722 11.8598 21.0889 12.2329C21.3056 12.6061 21.1787 13.0842 20.8057 13.3009C16.8223 15.6142 15.4636 20.7368 17.7768 24.7202C17.9935 25.0934 17.8666 25.5715 17.4936 25.7882C17.3701 25.8599 17.2352 25.8939 17.102 25.8939C16.8325 25.8937 16.5704 25.7545 16.4255 25.5048ZM29.4572 16.1606C29.7623 16.4658 29.7624 16.9604 29.4572 17.2654C29.1521 17.5706 28.6575 17.5705 28.3524 17.2655C26.5038 15.4169 23.4961 15.4169 21.6476 17.2655C21.495 17.4181 21.2951 17.4943 21.0951 17.4943C20.8951 17.4943 20.6952 17.4181 20.5427 17.2655C20.2376 16.9604 20.2376 16.4658 20.5427 16.1606C23.0004 13.703 26.9994 13.703 29.4572 16.1606ZM25.8099 26.1362C25.688 25.7224 25.9248 25.288 26.3387 25.1661C28.8466 24.4278 30.2863 21.787 29.5481 19.2793C29.4263 18.8654 29.6631 18.4311 30.0771 18.3092C30.4905 18.1874 30.9253 18.4242 31.0471 18.8381C32.0285 22.1724 30.1144 25.6835 26.78 26.665C26.7063 26.6867 26.632 26.697 26.559 26.697C26.2214 26.6971 25.9101 26.4766 25.8099 26.1362ZM19.5488 23.7836C18.7033 22.3275 18.4754 20.6294 18.907 19.002C19.0177 18.5849 19.4455 18.3362 19.8625 18.4471C20.2796 18.5577 20.5279 18.9854 20.4173 19.4024C20.0926 20.6265 20.2641 21.9037 20.9 22.9988C21.5359 24.0939 22.5603 24.8759 23.7844 25.2006C24.2015 25.3112 24.4498 25.739 24.3393 26.156C24.2465 26.5059 23.9303 26.7371 23.5847 26.7371C23.5184 26.7371 23.451 26.7286 23.3839 26.7107C21.7563 26.2793 20.3944 25.2396 19.5488 23.7836ZM28.0251 20.5258C28.0251 18.8577 26.6681 17.5006 25 17.5006C23.3319 17.5006 21.9749 18.8576 21.9749 20.5258C21.9749 22.1938 23.3319 23.5509 25 23.5509C26.6681 23.5509 28.0251 22.1938 28.0251 20.5258ZM25 21.9883C24.1936 21.9883 23.5374 21.3321 23.5374 20.5257C23.5374 19.7191 24.1936 19.063 25 19.063C25.8064 19.063 26.4626 19.7191 26.4626 20.5257C26.4626 21.3321 25.8064 21.9883 25 21.9883ZM9.25908 43.589C9.25908 44.0204 8.90928 44.3702 8.47783 44.3702H7.70645C7.275 44.3702 6.9252 44.0204 6.9252 43.589C6.9252 43.1575 7.275 42.8077 7.70645 42.8077H8.47783C8.90928 42.8077 9.25908 43.1575 9.25908 43.589ZM43.3498 43.589C43.3498 44.0204 43 44.3702 42.5686 44.3702H41.7971C41.3656 44.3702 41.0158 44.0204 41.0158 43.589C41.0158 43.1575 41.3656 42.8077 41.7971 42.8077H42.5686C43 42.8077 43.3498 43.1575 43.3498 43.589ZM29.9729 41.0088H20.082C19.237 41.0088 18.5496 41.6963 18.5496 42.5412V44.6366C18.5496 45.4816 19.2371 46.1691 20.082 46.1691H29.9729C30.818 46.1691 31.5055 45.4816 31.5055 44.6366V42.5412C31.5055 41.6963 30.818 41.0088 29.9729 41.0088ZM29.943 44.6066H20.1121V42.5713H29.943V44.6066ZM36.0146 40.6686C34.4043 40.6686 33.0942 41.9786 33.0942 43.5889C33.0942 45.1991 34.4043 46.5092 36.0146 46.5092C37.6249 46.5092 38.935 45.1991 38.935 43.5889C38.935 41.9786 37.6249 40.6686 36.0146 40.6686ZM36.0146 44.9468C35.2659 44.9468 34.6567 44.3377 34.6567 43.589C34.6567 42.8402 35.2659 42.2312 36.0146 42.2312C36.7634 42.2312 37.3725 42.8402 37.3725 43.589C37.3725 44.3377 36.7634 44.9468 36.0146 44.9468ZM13.9843 40.6686C12.374 40.6686 11.064 41.9786 11.064 43.5889C11.064 45.1991 12.374 46.5092 13.9843 46.5092C15.5946 46.5092 16.9047 45.1991 16.9047 43.5889C16.9047 41.9786 15.5946 40.6686 13.9843 40.6686ZM13.9843 44.9468C13.2355 44.9468 12.6265 44.3377 12.6265 43.589C12.6265 42.8402 13.2355 42.2312 13.9843 42.2312C14.733 42.2312 15.3422 42.8402 15.3422 43.589C15.3422 44.3377 14.733 44.9468 13.9843 44.9468Z" fill="white"/>
</svg>
