<svg width="44" height="44" viewBox="0 0 44 44" fill="none" xmlns="http://www.w3.org/2000/svg">
<g clip-path="url(#clip0_1_307)">
<path d="M15.5544 37.4685C15.5544 39.6008 17.2892 41.3356 19.4216 41.3356C21.5539 41.3356 23.2887 39.6008 23.2887 37.4685C23.2887 35.3362 21.5539 33.6014 19.4216 33.6014C17.2892 33.6014 15.5544 35.3362 15.5544 37.4685ZM19.4216 36.1795C20.1323 36.1795 20.7106 36.7577 20.7106 37.4685C20.7106 38.1793 20.1323 38.7575 19.4216 38.7575C18.7108 38.7575 18.1325 38.1793 18.1325 37.4685C18.1325 36.7577 18.7108 36.1795 19.4216 36.1795Z" fill="white"/>
<path d="M28.5312 37.4685C28.5312 39.6008 30.266 41.3356 32.3984 41.3356C34.5307 41.3356 36.2655 39.6008 36.2655 37.4685C36.2655 35.3362 34.5307 33.6014 32.3984 33.6014C30.266 33.6014 28.5312 35.3362 28.5312 37.4685ZM32.3984 36.1795C33.1092 36.1795 33.6874 36.7577 33.6874 37.4685C33.6874 38.1793 33.1092 38.7575 32.3984 38.7575C31.6876 38.7575 31.1093 38.1793 31.1093 37.4685C31.1093 36.7577 31.6876 36.1795 32.3984 36.1795Z" fill="white"/>
<path d="M42.7103 7.82054H10.0818C9.6404 6.27549 9.22911 4.83589 8.87583 3.59935C8.71779 3.04592 8.21189 2.66437 7.63637 2.66437H1.28904C0.577147 2.66437 0 3.24152 0 3.95341C0 4.66531 0.577147 5.24245 1.28904 5.24245H6.66401C8.1055 10.2883 11.4754 22.0833 12.8882 27.0281L12.3998 28.0048C11.1129 30.5788 12.9871 33.6014 15.8587 33.6014H37.5541C38.266 33.6014 38.8431 33.0242 38.8431 32.3123C38.8431 31.6005 38.266 31.0233 37.5541 31.0233H15.8587C14.9 31.0233 14.2774 30.0146 14.7057 29.1578L15.062 28.4452H37.5541C38.1296 28.4452 38.6354 28.0637 38.7936 27.5103L43.9497 9.46372C44.1846 8.64174 43.5671 7.82054 42.7103 7.82054ZM36.5818 25.8671H15.2378C14.5354 23.4088 12.5697 16.5289 10.8183 10.3986H41.0014L36.5818 25.8671Z" fill="white"/>
</g>
<defs>
<clipPath id="clip0_1_307">
<rect width="44" height="44" rx="6" fill="white"/>
</clipPath>
</defs>
</svg>
