<svg width="50" height="50" viewBox="0 0 50 50" fill="none" xmlns="http://www.w3.org/2000/svg">
<g clip-path="url(#clip0_2_1659)">
<path d="M47.0297 19.9584H38.3302V17.2254H40.8692C41.2745 17.2254 41.6031 16.8968 41.6031 16.4915C41.6031 16.0862 41.2745 15.7576 40.8692 15.7576H34.3233C33.9181 15.7576 33.5895 16.0862 33.5895 16.4915C33.5895 16.8968 33.918 17.2254 34.3233 17.2254H36.8624V19.9584H27.9383V13.8052C27.9383 13.3999 27.6098 13.0713 27.2044 13.0713C26.7991 13.0713 26.4705 13.3999 26.4705 13.8052V19.9584H24.6879V6.3877C24.6879 4.65693 23.2793 3.24883 21.5479 3.24883C19.8166 3.24883 18.4079 4.65693 18.4079 6.38789L18.4088 9.25742H16.6254V6.3877C16.6254 3.6748 18.8337 1.46768 21.5479 1.46768C24.2622 1.46768 26.4705 3.6748 26.4705 6.3877V10.8697C26.4705 11.275 26.7991 11.6036 27.2044 11.6036C27.6097 11.6036 27.9383 11.2751 27.9383 10.8697V6.3877C27.9383 2.86553 25.0717 0 21.548 0C18.0244 0 15.1578 2.86553 15.1578 6.3877V9.25742H14.7572C14.352 9.25742 14.0233 9.58594 14.0233 9.99131C14.0233 10.3967 14.352 10.7252 14.7572 10.7252H19.143H19.1433H20.3355C20.7408 10.7252 21.0694 10.3966 21.0694 9.99131C21.0694 9.58603 20.7408 9.25742 20.3355 9.25742H19.8767L19.8758 6.3877C19.8758 5.46621 20.626 4.7165 21.548 4.7165C22.4701 4.7165 23.2202 5.46621 23.2202 6.3877V19.9583H13.1375V17.2253H15.6766C16.0818 17.2253 16.4104 16.8967 16.4104 16.4914C16.4104 16.0861 16.0819 15.7575 15.6766 15.7575H9.13066C8.72539 15.7575 8.39678 16.0861 8.39678 16.4914C8.39678 16.8967 8.72539 17.2253 9.13066 17.2253H11.6697V19.9583H2.97021C1.33242 19.9584 0 21.2908 0 22.9286C0 24.5665 1.33242 25.8989 2.97021 25.8989H3.71387C5.02119 34.4789 12.3225 40.9017 21.0267 41.0767V46.0281C21.0268 48.2183 22.8092 50 25 50C27.1908 50 28.9732 48.2183 28.9732 46.0281V41.077C32.8615 40.9967 36.6614 39.6335 39.7106 37.2178C40.0283 36.9661 40.0818 36.5045 39.8302 36.1868C39.5784 35.869 39.1169 35.8157 38.7992 36.0673C35.9129 38.3539 32.2937 39.6132 28.6085 39.6132H21.3914C13.33 39.6132 6.5082 33.7728 5.19932 25.8989H15.6767C16.0819 25.8989 16.4105 25.5704 16.4105 25.165C16.4105 24.7597 16.082 24.4312 15.6767 24.4312H2.97021C2.1417 24.4312 1.46768 23.7571 1.46768 22.9285C1.46768 22.1 2.1417 21.426 2.97021 21.426H47.0297C47.8582 21.426 48.5323 22.1 48.5323 22.9285C48.5323 23.757 47.8583 24.4312 47.0297 24.4312H18.6121C18.2068 24.4312 17.8782 24.7598 17.8782 25.165C17.8782 25.5703 18.2068 25.8989 18.6121 25.8989H44.8005C44.2902 28.9736 42.933 31.8088 40.8456 34.1406C40.5753 34.4426 40.601 34.9065 40.9029 35.1769C41.2039 35.4465 41.6682 35.4223 41.9392 35.1195C44.2682 32.5179 45.7634 29.3415 46.2871 25.8988H47.0298C48.6677 25.8988 50.0001 24.5664 50.0001 22.9285C50 21.2908 48.6676 19.9584 47.0297 19.9584ZM25 48.5323C23.6185 48.5323 22.4944 47.409 22.4944 46.0282V41.081H27.5056V46.0282C27.5056 47.409 26.3815 48.5323 25 48.5323Z" fill="white"/>
</g>
<defs>
<clipPath id="clip0_2_1659">
<rect width="50" height="50" fill="white"/>
</clipPath>
</defs>
</svg>
