<svg width="50" height="50" viewBox="0 0 50 50" fill="none" xmlns="http://www.w3.org/2000/svg">
<path d="M20.0654 3.52795C18.3556 3.52795 16.9646 4.91897 16.9646 6.62874C16.9646 8.3386 18.3556 9.72952 20.0654 9.72952C21.7751 9.72952 23.1662 8.3385 23.1662 6.62874C23.1663 4.91897 21.7752 3.52795 20.0654 3.52795ZM20.0654 8.26467C19.1633 8.26467 18.4294 7.53079 18.4294 6.62874C18.4294 5.72668 19.1633 4.9928 20.0654 4.9928C20.9674 4.9928 21.7013 5.72668 21.7013 6.62874C21.7013 7.53079 20.9675 8.26467 20.0654 8.26467Z" fill="white"/>
<path d="M11.6774 3.52795C9.96768 3.52795 8.57666 4.91897 8.57666 6.62874C8.57666 8.3386 9.96768 9.72952 11.6774 9.72952C13.3872 9.72952 14.7782 8.3385 14.7782 6.62874C14.7782 4.91897 13.3872 3.52795 11.6774 3.52795ZM11.6774 8.26467C10.7754 8.26467 10.0415 7.53079 10.0415 6.62874C10.0415 5.72668 10.7754 4.9928 11.6774 4.9928C12.5795 4.9928 13.3134 5.72668 13.3134 6.62874C13.3134 7.53079 12.5795 8.26467 11.6774 8.26467Z" fill="white"/>
<path d="M38.5686 3.52795H30.1441C29.2234 3.52795 28.4744 4.27698 28.4744 5.19768V8.05989C28.4744 8.98059 29.2234 9.72961 30.1441 9.72961H38.5686C39.4893 9.72961 40.2383 8.98059 40.2383 8.05989V5.19768C40.2383 4.27698 39.4893 3.52795 38.5686 3.52795ZM38.7735 8.05989C38.7735 8.17288 38.6816 8.26477 38.5686 8.26477H30.1441C30.0311 8.26477 29.9392 8.17288 29.9392 8.05989V5.19768C29.9392 5.08469 30.0311 4.9928 30.1441 4.9928H38.5686C38.6816 4.9928 38.7735 5.08469 38.7735 5.19768V8.05989Z" fill="white"/>
<path d="M24.9996 15.0037C21.9954 15.0037 19.1528 15.9723 16.7793 17.805C16.4591 18.0522 16.4 18.5122 16.6471 18.8324C16.8944 19.1526 17.3544 19.2117 17.6745 18.9645C19.7893 17.3316 22.3222 16.4685 24.9996 16.4685C31.6151 16.4685 36.9972 21.8506 36.9972 28.4662C36.9972 35.0817 31.6151 40.4638 24.9996 40.4638C18.3841 40.4638 13.0019 35.0816 13.0019 28.4662C13.0019 25.7126 13.9586 23.0226 15.6956 20.8917C15.9511 20.5781 15.9042 20.1167 15.5906 19.8612C15.277 19.6056 14.8157 19.6526 14.5601 19.9661C12.6107 22.3576 11.537 25.3763 11.537 28.4662C11.537 35.8894 17.5762 41.9287 24.9995 41.9287C32.4227 41.9287 38.462 35.8894 38.462 28.4662C38.462 21.0429 32.4228 15.0037 24.9996 15.0037Z" fill="white"/>
<path d="M46.3153 44.3143V5.6291C46.3153 2.5252 43.7905 0 40.6872 0H9.31196C6.20864 0 3.68384 2.5252 3.68384 5.6291V44.372C3.68384 47.4753 6.20864 50 9.31186 50H40.6871C43.7625 50 46.2683 47.5199 46.313 44.4549C46.3163 44.4276 46.3167 44.3334 46.3153 44.3143ZM44.8504 43.6395H38.787C38.3825 43.6395 38.0545 43.9674 38.0545 44.3719C38.0545 44.7764 38.3825 45.1043 38.787 45.1043H44.786C44.4388 47.052 42.733 48.5352 40.6872 48.5352H9.31196C7.26616 48.5352 5.5603 47.052 5.21323 45.1044H35.8572C36.2617 45.1044 36.5896 44.7765 36.5896 44.372C36.5896 43.9675 36.2617 43.6395 35.8572 43.6395H5.14878V13.2574H44.8504V43.6395ZM44.8504 11.7927H5.14868V5.6291C5.14868 3.33291 7.01636 1.46484 9.31196 1.46484H40.6872C42.9828 1.46484 44.8504 3.33291 44.8504 5.6291V11.7927Z" fill="white"/>
<path d="M24.9997 18.4084C19.4537 18.4084 14.9417 22.9205 14.9417 28.4664C14.9417 28.9543 14.9768 29.4425 15.046 29.9171C15.046 29.9175 15.0462 29.9178 15.0462 29.9182C15.3887 32.2873 16.5752 34.4633 18.3877 36.0457C20.2185 37.644 22.5666 38.5243 24.9996 38.5243C27.4325 38.5243 29.7806 37.644 31.6115 36.0457C33.4238 34.4634 34.6103 32.2876 34.9529 29.9187C34.953 29.9182 34.9531 29.9177 34.9532 29.9172C35.0224 29.443 35.0576 28.9548 35.0576 28.4664C35.0576 22.9204 30.5456 18.4084 24.9997 18.4084ZM30.6481 34.9421C29.0841 36.3075 27.0782 37.0594 24.9996 37.0594C22.9209 37.0594 20.915 36.3075 19.3511 34.9421C17.9162 33.6894 16.9403 32.002 16.572 30.1519L17.0236 29.8446C17.7783 29.3311 18.7996 29.3307 19.5547 29.8446C20.8016 30.693 22.4868 30.6932 23.7339 29.8446C24.4875 29.3322 25.5116 29.3318 26.2651 29.8446C27.5125 30.6933 29.197 30.6931 30.4447 29.8444C31.2011 29.3298 32.2194 29.3295 32.9753 29.8445L33.427 30.1519C33.0589 32.0019 32.0832 33.6894 30.6481 34.9421ZM33.5926 28.5021C33.5875 28.4991 33.582 28.4964 33.5767 28.4934C33.1835 28.2647 32.7539 28.1175 32.3067 28.0389C31.747 27.9405 31.1577 27.9863 30.6156 28.1536C30.2622 28.2626 29.9258 28.4252 29.6203 28.6334C28.8649 29.1474 27.8435 29.1466 27.0891 28.6334C26.4699 28.2122 25.7473 27.9894 24.9996 27.9894C24.2565 27.9894 23.5242 28.2156 22.9099 28.6333C22.1533 29.148 21.135 29.1477 20.3788 28.6333C19.7595 28.2121 19.037 27.9893 18.2892 27.9893C17.6403 27.9893 16.9827 28.1643 16.4224 28.4935C16.4172 28.4965 16.4118 28.4991 16.4066 28.5021C16.4065 28.4901 16.4065 28.4782 16.4065 28.4662C16.4066 23.7281 20.2614 19.8732 24.9997 19.8732C29.7379 19.8732 33.5927 23.7281 33.5927 28.4663C33.5927 28.4782 33.5927 28.4902 33.5926 28.5021Z" fill="white"/>
</svg>
